# xmcd CD database file
#
# Track frame offsets:
#	150
#	24837
#	49120
#	73897
#	84432
#	103985
#	124036
#	133143
#	162856
#	181535
#	201150
#
# Disc length: 2795 seconds
#
# Revision: 1
# Processed by: cddbd v1.5.2PL0 Copyright (c) Steve Scherf et al.
# Submitted via: CDex 2.21
#
DISCID=910ae90b
DTITLE=Solveig Slettahjell - Good Rain
DYEAR=2006
DGENRE=Jazz
TTITLE0=Where Do You Run To
TTITLE1=Another Day
TTITLE2=Don't Look Back
TTITLE3=Colour Lullabye
TTITLE4=Flawless
TTITLE5=We Were Indians
TTITLE6=Do Lord
TTITLE7=My Oh My
TTITLE8=Good Rain
TTITLE9=The Moon
TTITLE10=P.S. I Love You
EXTD=YEAR: 2006
EXTT0=
EXTT1=
EXTT2=
EXTT3=
EXTT4=
EXTT5=
EXTT6=
EXTT7=
EXTT8=
EXTT9=
EXTT10=
PLAYORDER=
